<?xml version="1.0" encoding="utf-8"?>
<!-- Generator: Adobe Illustrator 16.0.0, SVG Export Plug-In . SVG Version: 6.00 Build 0)  -->
<!DOCTYPE svg PUBLIC "-//W3C//DTD SVG 1.1//EN" "http://www.w3.org/Graphics/SVG/1.1/DTD/svg11.dtd">
<svg version="1.1" id="Layer_1" xmlns="http://www.w3.org/2000/svg" xmlns:xlink="http://www.w3.org/1999/xlink" x="0px" y="0px"
	 width="181.0635px" height="181.084px" viewBox="0 0 181.0635 181.084" enable-background="new 0 0 181.0635 181.084"
	 xml:space="preserve">
<g id="uC22d2_1_">
	<g>
		<path fill="#433624" d="M122,181c-15,0-30,0-45,0c-0.0356-1.8008-0.4331-3.6934-0.0083-5.377
			c0.4473-1.7734-0.7021-2.458-1.5713-2.293c-5.6797,1.0771-8.8418-5.4609-14.4868-4.6055
			c-1.3555,0.2051-1.6157-1.7266-2.0796-3.0029c-2.4321-6.6904,3.4648-9.4336,6.3242-13.5967
			c1.5786-2.2969,6.5781-1.8418,5.6709-5.8477c-0.7222-3.1865-4.7852-2.9688-7.1787-4.5898
			c-3.0498-2.0645-6.4614-3.2744-9.5688-5.6602c-5.5864-4.2871-10.4116-9.0254-14.8262-14.377
			c-1.7002-2.0615-2.0928-5.7754-6.2471-5.0645c-0.4653,0.0791-1.9766-2.4248-1.7939-2.623
			c2.2935-2.5039,0.2637-5.0586-0.1416-7.2598c-0.9751-5.2969-1.3047-10.8301-3.9424-15.7319
			c-0.0176-0.9873-0.0347-1.9746-0.0522-2.9624c-0.002-1.0054-0.0034-2.0112-0.0049-3.0171c0.1045-1.9121,0.209-3.8247,0.314-5.7368
			c1.1968-0.4702,1.2588-1.5298,1.3408-2.5796c2.7065-17.9575,11.5913-31.7314,26.7637-41.9858
			c11.8701-8.0225,24.5566-11.7593,38.6855-10.8584c15.8486,1.0107,28.999,7.688,40.4785,18.6182
			c5.4531,5.1919,7.8398,12.6567,13.9961,17.1265c0.3311,0.2402,0.6641,1.0786,0.5098,1.2964
			c-2.7217,3.8594,0.3691,7.2017,0.9922,10.6987c3.6025,20.2065-0.5674,38.1382-13.6562,54.3833
			c-5.8281,7.2324-13.2227,11.5674-20.8867,15.7725c-3.8086,2.0918-2.4365,3.2246-0.4248,5.2285
			c0.9424,0.9395,2.085,0.7754,3.0791,1.1777c3.3242,1.3477,3.085,4.625,3.4531,7.4756c0.3516,2.709-1.8887,2.9834-3.5713,3.1318
			c-2.9238,0.2578-5.416,1.6699-6.1123,4.1074c-0.7383,2.5801,1.7988,4.7852,3.7734,5.9688
			C120.6152,171.6855,121.9414,175.9316,122,181z M111.1768,147.3945c-1.3115,0.1113-1.4678,0.9434-1.2139,1.75
			c0.7578,2.4004,1.8086,4.7969,4.4668,5.4473c1.3535,0.3311,1.9648-1.25,1.7812-2.4004
			C115.752,149.3291,112.9189,148.8428,111.1768,147.3945z M102.9355,168.1309c-3.6426,0.3701-6.3926,1.3672-8.709,3.4414
			c-0.0205,0.0195,0.6377,1.0234,0.791,0.9746C97.6934,171.7021,100.8789,171.8535,102.9355,168.1309z"/>
		<path fill-rule="evenodd" clip-rule="evenodd" fill="#D6B99B" d="M122,181c-0.0586-5.0684-1.3848-9.3145-6.1719-12.1836
			c-1.9746-1.1836-4.5117-3.3887-3.7734-5.9688c0.6963-2.4375,3.1885-3.8496,6.1123-4.1074
			c1.6826-0.1484,3.9229-0.4229,3.5713-3.1318c-0.3682-2.8506-0.1289-6.1279-3.4531-7.4756
			c-0.9941-0.4023-2.1367-0.2383-3.0791-1.1777c-2.0117-2.0039-3.3838-3.1367,0.4248-5.2285
			c7.6641-4.2051,15.0586-8.54,20.8867-15.7725c13.0889-16.2451,17.2588-34.1768,13.6562-54.3833
			c-0.623-3.4971-3.7139-6.8394-0.9922-10.6987c0.1543-0.2178-0.1787-1.0562-0.5098-1.2964
			c-6.1562-4.4697-8.543-11.9346-13.9961-17.1265c-11.4795-10.9302-24.6299-17.6074-40.4785-18.6182
			c-14.1289-0.9009-26.8154,2.8359-38.6855,10.8584C40.3394,44.9438,31.4546,58.7178,28.7476,76.6768
			c-1.0356,0.5542-2.1343,1.0742-1.3403,2.5781c-0.105,1.9121-0.2095,3.8247-0.314,5.7368
			c-5.3188,0.4141-9.2954,3.541-12.916,6.9438c-1.4575,1.3691-2.2441,3.5664-4.6084,2.3418
			c-2.0933-1.084-1.3047-3.1406-0.8081-4.8726c2.4712-8.6157,2.4761-8.6206-6.2778-7.5063C1.9922,81.9609,1.4946,81.9673,1,82
			C1,56,1.0405,30,0.9346,4.0005C0.9243,1.4995,1.5005,0.9331,4,0.9365c58,0.082,116,0.082,174,0
			c2.499-0.0034,3.0664,0.564,3.0635,3.0635c-0.082,58-0.082,116,0,174c0.0029,2.499-0.5615,3.083-3.0635,3.0664
			C159.334,180.9443,140.666,181,122,181z"/>
		<path fill-rule="evenodd" clip-rule="evenodd" fill="#EED5B9" d="M1,82c0.4946-0.0327,0.9922-0.0391,1.4829-0.1016
			c8.7539-1.1143,8.749-1.1094,6.2778,7.5063c-0.4966,1.7319-1.2852,3.7886,0.8081,4.8726
			c2.3643,1.2246,3.1509-0.9727,4.6084-2.3418c3.6206-3.4028,7.5972-6.5298,12.916-6.9438
			c0.0015,1.0059,0.0029,2.0117,0.0049,3.0176c-1.5894,1.0161-1.5825,2.0034,0.0522,2.9619
			c2.6377,4.9019,2.9673,10.4351,3.9424,15.7319c0.4053,2.2012,2.4351,4.7559,0.1416,7.2598
			c-0.1826,0.1982,1.3286,2.7021,1.7939,2.623c4.1543-0.7109,4.5469,3.0029,6.2471,5.0645
			c4.4146,5.3516,9.2397,10.0898,14.8262,14.377c3.1074,2.3857,6.519,3.5957,9.5688,5.6602
			c2.3936,1.6211,6.4565,1.4033,7.1787,4.5898c0.9072,4.0059-4.0923,3.5508-5.6709,5.8477
			c-2.8594,4.1631-8.7563,6.9062-6.3242,13.5967c0.4639,1.2764,0.7241,3.208,2.0796,3.0029
			c5.645-0.8555,8.8071,5.6826,14.4868,4.6055c0.8691-0.165,2.0186,0.5195,1.5713,2.293C76.5669,177.3066,76.9644,179.1992,77,181
			c-24.2642,0-48.5283-0.0625-72.7915,0.084c-2.8374,0.0176-3.292-0.6602-3.2822-3.3574C1.041,145.8184,1,113.9082,1,82z"/>
		<path fill-rule="evenodd" clip-rule="evenodd" fill="#D6B99B" d="M111.1768,147.3945c1.7422,1.4482,4.5752,1.9346,5.0342,4.7969
			c0.1836,1.1504-0.4277,2.7314-1.7812,2.4004c-2.6582-0.6504-3.709-3.0469-4.4668-5.4473
			C109.709,148.3379,109.8652,147.5059,111.1768,147.3945z"/>
		<path fill-rule="evenodd" clip-rule="evenodd" fill="#D6B99B" d="M102.9355,168.1309c-2.0566,3.7227-5.2422,3.5713-7.918,4.416
			c-0.1533,0.0488-0.8115-0.9551-0.791-0.9746C96.543,169.498,99.293,168.501,102.9355,168.1309z"/>
		<path fill-rule="evenodd" clip-rule="evenodd" fill="#D6B99B" d="M27.1504,90.9712c-1.6348-0.9585-1.6416-1.9458-0.0522-2.9619
			C27.1157,88.9966,27.1328,89.9839,27.1504,90.9712z"/>
		<path fill-rule="evenodd" clip-rule="evenodd" fill="#EED5B9" d="M27.4072,79.2549c-0.7939-1.5039,0.3047-2.0239,1.3403-2.5781
			C28.666,77.7251,28.604,78.7847,27.4072,79.2549z"/>
	</g>
</g>
</svg>
